<?xml version="1.0" standalone="no"?>
<!DOCTYPE svg PUBLIC "-//W3C//DTD SVG 20010904//EN"
 "http://www.w3.org/TR/2001/REC-SVG-20010904/DTD/svg10.dtd">
<svg version="1.0" xmlns="http://www.w3.org/2000/svg"
 width="100.000000pt" height="100.000000pt" viewBox="0 0 100.000000 100.000000"
 preserveAspectRatio="xMidYMid meet">

<g transform="translate(0.000000,100.000000) scale(0.100000,-0.100000)"
fill="#000000" stroke="none">
<path d="M91 771 c-17 -17 -21 -34 -21 -80 0 -66 15 -91 55 -91 13 0 28 -7 33
-17 9 -14 10 -14 16 4 4 12 16 23 26 26 17 4 20 14 20 66 0 54 -2 61 -20 61
-18 0 -20 -7 -20 -60 0 -33 -4 -60 -10 -60 -6 0 -10 27 -10 60 0 53 -2 60 -20
60 -16 0 -19 -8 -22 -62 -2 -35 -6 -62 -10 -60 -5 1 -8 4 -8 7 0 3 0 34 0 70
l0 66 68 -3 67 -3 3 -72 c3 -66 5 -73 24 -73 16 0 18 3 9 14 -7 9 -11 38 -9
73 l3 58 64 3 c45 2 67 -1 72 -10 12 -18 11 -106 -1 -113 -22 -14 -8 -24 38
-27 43 -3 47 -5 50 -30 4 -37 22 -36 22 1 0 28 3 30 43 33 23 2 41 8 39 13 -1
6 12 12 30 15 31 5 33 7 36 53 3 46 3 47 -27 47 -16 0 -33 5 -36 10 -4 6 22
10 69 10 44 0 76 -4 76 -10 0 -5 -13 -10 -30 -10 -29 0 -30 -1 -30 -50 0 -49
1 -50 30 -50 20 0 30 -5 30 -15 0 -9 9 -15 21 -15 17 0 19 3 10 14 -7 9 -11
38 -9 73 l3 58 68 3 c42 2 67 -1 67 -8 0 -6 -25 -10 -60 -10 -53 0 -60 -2 -60
-20 0 -18 7 -20 60 -20 33 0 60 -4 60 -10 0 -6 -27 -10 -60 -10 -53 0 -60 -2
-60 -20 0 -18 7 -20 65 -20 37 0 65 -4 65 -10 0 -5 -22 -10 -50 -10 -27 0 -50
-3 -50 -7 1 -13 30 -47 30 -35 0 6 17 16 39 22 35 9 39 13 44 53 7 59 0 119
-15 129 -7 4 -89 8 -181 8 l-169 0 -30 -32 -29 -32 -24 30 -23 29 -170 3
c-161 3 -172 2 -191 -17z m359 -48 c0 -38 23 -73 48 -73 29 0 52 32 52 72 0
21 5 38 10 38 6 0 10 -20 10 -44 0 -37 -5 -48 -31 -70 -38 -32 -46 -32 -81 1
-22 21 -28 36 -28 70 0 24 5 43 10 43 6 0 10 -17 10 -37z"/>
<path d="M282 693 l3 -48 48 -3 47 -3 0 50 0 51 -51 0 -50 0 3 -47z"/>
<path d="M320 605 c0 -11 -13 -15 -54 -15 -30 0 -58 -4 -61 -10 -4 -6 19 -10
62 -10 63 0 69 2 80 25 10 22 9 25 -8 25 -10 0 -19 -7 -19 -15z"/>
<path d="M653 591 c14 -38 4 -61 -29 -61 -22 0 -25 -2 -14 -15 13 -16 46 -20
54 -7 3 5 8 32 12 60 6 48 5 52 -14 52 -18 0 -19 -3 -9 -29z"/>
<path d="M370 575 c0 -11 12 -15 45 -15 33 0 45 4 45 15 0 11 -12 15 -45 15
-33 0 -45 -4 -45 -15z"/>
<path d="M540 576 c0 -7 14 -16 31 -20 50 -10 59 -7 59 14 0 17 -7 20 -45 20
-32 0 -45 -4 -45 -14z"/>
<path d="M702 579 c2 -6 7 -10 11 -10 4 1 25 1 47 1 22 0 40 5 40 10 0 6 -23
10 -51 10 -32 0 -49 -4 -47 -11z"/>
</g>
</svg>
